<svg width="98" height="126" viewBox="0 0 98 126" fill="none" xmlns="http://www.w3.org/2000/svg">
<path d="M15.9717 124H7.58868C6.10647 124 4.68497 123.41 3.63689 122.359C2.58881 121.309 2 119.885 2 118.4V98.7998C2 97.3146 2.58881 95.8902 3.63689 94.84C4.68497 93.7898 6.10647 93.1998 7.58868 93.1998H15.9717M35.5321 87.5999V76.3999C35.5321 74.1721 34.6489 72.0356 33.0767 70.4603C31.5046 68.885 29.3724 68 27.1491 68L15.9717 93.1998V124H47.4918C48.8396 124.015 50.1475 123.542 51.1745 122.667C52.2015 121.792 52.8784 120.575 53.0805 119.24L56.9367 94.0398C57.0583 93.2372 57.0043 92.4178 56.7784 91.6382C56.5525 90.8586 56.1602 90.1375 55.6286 89.5249C55.097 88.9123 54.4388 88.4229 53.6997 88.0905C52.9605 87.7581 52.1581 87.5907 51.348 87.5999H35.5321Z" stroke="#1E489B" stroke-width="3" stroke-linecap="round" stroke-linejoin="round"/>
<path d="M70.637 67.9998H65.4548C64.5385 67.9998 63.6598 67.6416 63.0119 67.004C62.364 66.3663 62 65.5015 62 64.5998V52.6999C62 51.7981 62.364 50.9334 63.0119 50.2957C63.6598 49.6581 64.5385 49.2999 65.4548 49.2999H70.637M82.7289 45.8999V39.1C82.7289 37.7474 82.1829 36.4502 81.2111 35.4937C80.2392 34.5373 78.9211 34 77.5467 34L70.637 49.2999V67.9998H90.1222C90.9554 68.0091 91.7639 67.7217 92.3988 67.1906C93.0337 66.6595 93.4521 65.9205 93.5771 65.1098L95.9609 49.8099C96.036 49.3226 96.0026 48.8251 95.863 48.3517C95.7234 47.8784 95.4808 47.4406 95.1522 47.0687C94.8236 46.6968 94.4167 46.3996 93.9598 46.1978C93.5029 45.996 93.0068 45.8943 92.5061 45.8999H82.7289Z" stroke="#1E489B" stroke-width="2.3" stroke-linecap="round" stroke-linejoin="round"/>
<path d="M51.8266 21.9999H48.9306C48.4186 21.9999 47.9275 21.7786 47.5655 21.3848C47.2034 20.991 47 20.4568 47 19.8999V12.5499C47 11.993 47.2034 11.4588 47.5655 11.065C47.9275 10.6712 48.4186 10.4499 48.9306 10.4499H51.8266M58.5838 8.34995V4.14998C58.5838 3.31455 58.2787 2.51334 57.7356 1.92261C57.1925 1.33187 56.4559 1 55.6879 1L51.8266 10.4499V21.9999H62.7154C63.181 22.0056 63.6328 21.8281 63.9876 21.5001C64.3423 21.1721 64.5762 20.7156 64.646 20.2149L65.9781 10.7649C66.0201 10.464 66.0015 10.1567 65.9234 9.86431C65.8454 9.57196 65.7099 9.30156 65.5262 9.07184C65.3426 8.84212 65.1152 8.65858 64.8599 8.53393C64.6046 8.40928 64.3274 8.34651 64.0475 8.34995H58.5838Z" stroke="#1E489B" stroke-width="1.8" stroke-linecap="round" stroke-linejoin="round"/>
</svg>
