<svg width="137" height="30" viewBox="0 0 137 30" fill="none" xmlns="http://www.w3.org/2000/svg">
<path fill-rule="evenodd" clip-rule="evenodd" d="M36.2511 8.06858C36.281 8.16277 36.3109 8.22556 36.3706 8.25696C36.4005 8.28835 36.4303 8.31975 36.4602 8.31975C36.4901 8.31975 36.5199 8.28835 36.5498 8.25696C36.5797 8.22556 36.6394 8.16277 36.6693 8.06858L39.2679 0.125582H43.121L39.2679 10.0779C39.1783 10.329 39.0588 10.5802 38.9094 10.8C38.7601 11.0197 38.5809 11.2395 38.3718 11.3965C38.1627 11.5849 37.8939 11.7104 37.5952 11.8046C37.2965 11.8988 36.9082 11.9616 36.4602 11.9616C36.0122 11.9616 35.6239 11.8988 35.3252 11.8046C35.0265 11.7104 34.7577 11.5535 34.5486 11.3965C34.3395 11.2395 34.1603 11.0197 34.011 10.8C33.8616 10.5802 33.7421 10.329 33.6525 10.0779L29.7994 0.125582H33.6525L36.2511 8.06858ZM43.4495 11.836V0.125582H47.0338V11.836H43.4495ZM54.7997 5.52557C55.0088 5.52557 55.2477 5.52557 55.4568 5.49417C55.6659 5.46278 55.8451 5.39999 55.9944 5.21162C56.1737 4.99185 56.2931 4.6465 56.2931 4.20697C56.2931 4.04999 56.2633 3.89301 56.2334 3.73604C56.2035 3.57906 56.1139 3.42208 55.9646 3.2965C55.8152 3.17092 55.636 3.07674 55.4568 3.07674C55.2477 3.04534 55.0685 3.04534 54.8594 3.04534H52.8582C52.7089 3.04534 52.5894 3.07674 52.5297 3.10813C52.44 3.17092 52.3803 3.20232 52.3504 3.2965C52.3206 3.35929 52.2907 3.42208 52.2608 3.51627C52.2608 3.57906 52.231 3.67325 52.231 3.73604V5.55696H54.7997V5.52557ZM48.6168 11.836V2.32325C48.6168 2.07209 48.6467 1.82093 48.7064 1.50697C48.7662 1.19302 48.8857 0.941858 49.0649 0.722091C49.1843 0.565115 49.3636 0.439534 49.6025 0.313953C49.8415 0.188372 50.17 0.125582 50.5284 0.125582H56.6814C57.1295 0.125582 57.5476 0.188372 57.9658 0.282558C58.3541 0.376744 58.7125 0.596511 59.0411 0.973254C59.3099 1.25581 59.519 1.66395 59.6385 2.16627C59.7878 2.6686 59.8475 3.3279 59.8475 4.17557C59.8475 4.36394 59.8475 4.6465 59.8177 4.96045C59.7878 5.27441 59.7579 5.61975 59.6982 5.9965C59.6384 6.34185 59.519 6.68719 59.3995 7.03254C59.28 7.37789 59.0709 7.62905 58.8619 7.84882C58.593 8.06858 58.2943 8.25696 57.9061 8.35114C57.5476 8.44533 57.1892 8.50812 56.8905 8.50812H52.2011V11.8988H48.6168V11.836ZM64.4772 8.91626H70.6601C70.9289 8.91626 71.1081 8.88486 71.1678 8.79068C71.2276 8.72789 71.2873 8.6337 71.2873 8.53951C71.2873 8.35114 71.2276 8.22556 71.0782 8.13137C70.9289 8.06858 70.7795 8.00579 70.6003 7.943L66.2992 6.68719C65.9707 6.59301 65.7018 6.46743 65.4928 6.27905C65.2837 6.09068 65.1343 5.93371 65.0148 5.77673C64.746 5.39999 64.5967 4.99185 64.5071 4.52092C64.4473 4.04999 64.4175 3.61046 64.4175 3.17092C64.4175 2.79418 64.4473 2.41744 64.5071 1.9779C64.5668 1.56976 64.7759 1.16163 65.1045 0.816278C65.2837 0.627906 65.5226 0.470929 65.8213 0.313953C66.12 0.156976 66.5083 0.0941856 66.9862 0.0941856H74.3339V3.01395H68.6589C68.4498 3.01395 68.3004 3.01395 68.2407 3.04534C68.181 3.04534 68.1212 3.07674 68.0913 3.10813C67.9719 3.17092 67.9121 3.2965 67.9121 3.42208C67.9121 3.61046 68.0017 3.73604 68.2108 3.83022C68.4199 3.92441 68.629 3.9872 68.8381 4.04999L72.6015 5.11743C72.8405 5.18022 73.1093 5.27441 73.408 5.43138C73.7067 5.55696 73.9456 5.74533 74.1547 5.9651C74.3339 6.15347 74.4534 6.34184 74.5729 6.56161C74.6924 6.78138 74.7521 7.03254 74.8118 7.25231C74.8716 7.50347 74.9014 7.72324 74.9014 7.9744C74.9313 8.19416 74.9313 8.41393 74.9313 8.6337C74.9313 8.97905 74.9014 9.35579 74.8417 9.79532C74.782 10.2035 74.6326 10.6116 74.3937 10.9569C74.2443 11.1767 74.0651 11.3651 73.8859 11.4907C73.7067 11.6163 73.5275 11.7104 73.3184 11.7732C73.1093 11.836 72.9301 11.8674 72.721 11.8674C72.5119 11.8674 72.3327 11.8988 72.1535 11.8988H64.5071V8.91626H64.4772ZM80.248 6.74998H82.5479L81.5323 3.79883C81.5025 3.76743 81.4726 3.70464 81.4726 3.64185C81.4427 3.57906 81.4129 3.54767 81.4129 3.54767C81.383 3.54767 81.3531 3.57906 81.3531 3.64185C81.3233 3.70464 81.2934 3.76743 81.2934 3.79883L80.248 6.74998ZM78.8441 1.41279L74.7222 11.836H78.5156L79.3818 9.41858H83.3842L84.2504 11.836H88.0438L83.9218 1.41279C83.8024 1.09883 83.653 0.847673 83.4439 0.659301C83.2647 0.47093 83.0557 0.313953 82.8466 0.219767C82.6375 0.125581 82.3985 0.0627913 82.1596 0.031396C81.9206 7.18113e-07 81.6518 0 81.383 0C80.935 0 80.5765 0.031395 80.3077 0.0941856C80.0389 0.156976 79.7999 0.251162 79.5909 0.376743C79.4117 0.502325 79.2324 0.659301 79.1428 0.816278C79.0532 1.00465 78.9338 1.19302 78.8441 1.41279ZM100.529 9.85811C100.529 9.9523 100.499 10.1407 100.469 10.3604C100.439 10.5802 100.35 10.8314 100.171 11.0511C100.021 11.2709 99.7822 11.4907 99.4537 11.679C99.1251 11.8674 98.6771 11.9616 98.0797 11.9616C97.8706 11.9616 97.6615 11.9616 97.4525 11.9302C97.2434 11.8988 97.0343 11.8674 96.8252 11.7732C96.6161 11.7104 96.407 11.5849 96.2278 11.4279C96.0187 11.2709 95.8395 11.0511 95.6902 10.8L91.6579 4.83487C91.628 4.77208 91.5683 4.70929 91.5085 4.6465C91.4488 4.58371 91.3891 4.55231 91.3592 4.55231C91.3293 4.55231 91.2995 4.55231 91.2397 4.58371C91.18 4.61511 91.1501 4.70929 91.1501 4.86627V11.8046H88.3723V2.07209C88.3723 1.69535 88.432 1.38139 88.5814 1.09883C88.7307 0.847672 88.9099 0.627905 89.1489 0.470929C89.3878 0.313953 89.6567 0.188372 89.9554 0.125582C90.2541 0.062791 90.5527 0.031396 90.8813 0.031396C91.0306 0.031396 91.2099 0.0313955 91.4189 0.0627908C91.628 0.094186 91.8371 0.125582 92.0462 0.188372C92.2553 0.251163 92.4643 0.376744 92.6734 0.502325C92.8825 0.659301 93.0617 0.847672 93.2409 1.09883L97.2732 7.09533C97.3031 7.15812 97.3628 7.22091 97.4226 7.2837C97.4823 7.34649 97.5122 7.37789 97.6018 7.37789C97.6914 7.37789 97.7511 7.34649 97.7511 7.2837C97.781 7.22091 97.781 7.15812 97.781 7.09533V0.125582H100.559V9.85811H100.529ZM105.129 11.836V3.04534H101.156V0.125582H112.686V3.04534H108.713V11.836H105.129ZM115.195 11.836C114.956 11.836 114.717 11.8046 114.508 11.7732C114.269 11.7418 114.06 11.6162 113.85 11.4279C113.582 11.2081 113.462 10.9883 113.402 10.7372C113.373 10.486 113.343 10.2349 113.343 9.9523V1.91511C113.343 1.69535 113.373 1.47558 113.432 1.22442C113.492 1.00465 113.612 0.784881 113.821 0.565115C114.03 0.376743 114.269 0.251163 114.508 0.188372C114.747 0.125582 114.985 0.0941856 115.165 0.0941856H123.17V2.91976H117.674C117.554 2.91976 117.465 2.91976 117.375 2.95116C117.285 2.98255 117.196 3.01395 117.136 3.07674C117.046 3.13953 116.987 3.26511 116.987 3.35929C116.957 3.48487 116.957 3.57906 116.957 3.64185V4.52092H123.02V7.06394H116.957V8.31975C116.957 8.44533 116.987 8.53951 117.017 8.6023C117.046 8.66509 117.076 8.72788 117.136 8.75928C117.226 8.85347 117.315 8.88486 117.465 8.91626C117.584 8.91626 117.704 8.91626 117.823 8.91626H123.259V11.7732H115.195V11.836ZM135.565 11.836H131.981V7.18952H127.949V11.836H124.364V0.125582H127.949V4.26976H131.981V0.125582H135.565V11.836Z" fill="#24242E"/>
<path fill-rule="evenodd" clip-rule="evenodd" d="M11.332 0C9.63526 5.30066 0 14.165 0 18.5673C0 23.9578 5.06003 28.3001 11.332 28.3301C17.604 28.3001 22.6641 23.9578 22.6641 18.5673C22.6641 14.165 13.0288 5.30066 11.332 0ZM5.72662 18.7769C5.93872 18.5972 6.09021 18.3277 6.09021 17.9983C6.09021 17.4592 5.66602 17.01 5.15093 17.01C4.63583 17.01 4.21164 17.4592 4.21164 17.9983C4.21164 18.5373 4.63583 18.9866 5.15093 18.9866C5.24183 18.9866 5.36302 18.9566 5.45392 18.9267L7.72639 24.5867C5.15093 23.5685 3.06026 21.4722 3.06026 18.5673C3.06026 17.04 7.2719 11.6794 8.27178 10.3917C9.21107 9.19381 10.3019 7.78628 11.332 6.28892C12.3622 7.75634 13.453 9.16386 14.3923 10.3917C15.3922 11.7094 19.6038 17.04 19.6038 18.5673C19.6038 21.4422 17.5434 23.5385 14.9983 24.5567L17.2708 18.9866C17.3314 19.0165 17.4223 19.0165 17.5131 19.0165C18.0282 19.0165 18.4524 18.5673 18.4524 18.0282C18.4524 17.4892 18.0282 17.04 17.5131 17.04C16.9981 17.04 16.5739 17.4892 16.5739 18.0282C16.5739 18.3577 16.7254 18.6571 16.9981 18.8368L12.9076 22.9396L11.5138 17.3694C11.8774 17.2496 12.1501 16.8603 12.1501 16.441C12.1501 15.902 11.7259 15.4528 11.2108 15.4528C10.6957 15.4528 10.2716 15.902 10.2716 16.441C10.2716 16.8603 10.5442 17.2197 10.9078 17.3694L9.54436 22.5503L5.72662 18.7769Z" fill="#24242E"/>
<path d="M31.928 24.416V22.448H29.96V21.008H31.928V19.04H33.368V21.008H35.336V22.448H33.368V24.416H31.928ZM37.7285 26L40.3685 18.896H36.5885V17.12H42.1925L42.6605 17.876L39.7205 26H37.7285ZM48.9188 28.52C48.5268 28.032 48.1628 27.484 47.8268 26.876C47.4988 26.268 47.2348 25.576 47.0348 24.8C46.8428 24.016 46.7468 23.112 46.7468 22.088C46.7468 21.12 46.8508 20.244 47.0588 19.46C47.2668 18.676 47.5348 17.972 47.8628 17.348C48.1908 16.724 48.5428 16.168 48.9188 15.68H50.5028C50.1588 16.248 49.8348 16.86 49.5308 17.516C49.2348 18.172 48.9908 18.88 48.7988 19.64C48.6148 20.392 48.5228 21.208 48.5228 22.088C48.5228 22.96 48.6028 23.76 48.7628 24.488C48.9308 25.208 49.1628 25.892 49.4588 26.54C49.7548 27.196 50.1028 27.856 50.5028 28.52H48.9188ZM55.1914 25.988V24.116H51.3034L50.9674 23.276L53.8474 17.12H55.6594L53.0794 22.604H55.1914V20.876L55.5394 19.856H56.9674V22.604H57.8794V23.828L56.9674 24.116V25.988H55.1914ZM61.4691 26.06C61.0771 26.06 60.6811 26.044 60.2811 26.012C59.8891 25.98 59.5331 25.932 59.2131 25.868V24.464H61.3011C61.9011 24.464 62.3411 24.28 62.6211 23.912C62.9011 23.536 63.0411 22.984 63.0411 22.256C62.7691 22.336 62.4651 22.392 62.1291 22.424C61.8011 22.448 61.4371 22.46 61.0371 22.46C60.1571 22.46 59.5451 22.28 59.2011 21.92C58.8571 21.552 58.6851 21.052 58.6851 20.42V19.148C58.6851 18.396 58.8891 17.86 59.2971 17.54C59.7051 17.22 60.2331 17.06 60.8811 17.06H62.1651C62.5971 17.06 62.9771 17.128 63.3051 17.264C63.6411 17.392 63.9211 17.62 64.1451 17.948C64.3691 18.268 64.5371 18.712 64.6491 19.28C64.7691 19.848 64.8291 20.568 64.8291 21.44C64.8291 22.6 64.6931 23.516 64.4211 24.188C64.1571 24.86 63.7731 25.34 63.2691 25.628C62.7731 25.916 62.1731 26.06 61.4691 26.06ZM61.5411 20.948H63.0411C63.0411 20.34 62.9971 19.872 62.9091 19.544C62.8211 19.208 62.6851 18.976 62.5011 18.848C62.3251 18.72 62.0971 18.656 61.8171 18.656H61.2771C61.0211 18.656 60.8211 18.72 60.6771 18.848C60.5331 18.976 60.4611 19.196 60.4611 19.508V20.084C60.4611 20.436 60.5451 20.668 60.7131 20.78C60.8891 20.892 61.1651 20.948 61.5411 20.948ZM69.1782 26.06C68.6902 26.06 68.1742 26.04 67.6302 26C67.0942 25.96 66.5902 25.916 66.1182 25.868V24.464H69.2502C69.6822 24.464 69.9782 24.36 70.1382 24.152C70.2982 23.944 70.3782 23.712 70.3782 23.456V22.844C70.3782 22.564 70.3062 22.344 70.1622 22.184C70.0262 22.016 69.7942 21.932 69.4662 21.932H68.7702C68.5062 21.932 68.3062 21.988 68.1702 22.1C68.0422 22.204 67.9582 22.368 67.9182 22.592H66.2382L66.4902 17.12H71.8182V18.716H68.0142L67.9182 20.828C68.1742 20.564 68.5782 20.432 69.1302 20.432H70.1022C70.7902 20.432 71.3062 20.632 71.6502 21.032C71.9942 21.432 72.1662 21.928 72.1662 22.52V23.828C72.1662 24.612 71.9102 25.18 71.3982 25.532C70.8862 25.884 70.1462 26.06 69.1782 26.06ZM72.8792 28.52C73.2392 27.936 73.5672 27.316 73.8632 26.66C74.1672 26.012 74.4072 25.312 74.5832 24.56C74.7672 23.808 74.8592 22.988 74.8592 22.1C74.8592 21.236 74.7792 20.444 74.6192 19.724C74.4672 19.004 74.2432 18.32 73.9472 17.672C73.6512 17.024 73.2952 16.36 72.8792 15.68H74.4752C74.8752 16.176 75.2392 16.728 75.5672 17.336C75.8952 17.944 76.1552 18.636 76.3472 19.412C76.5472 20.188 76.6472 21.084 76.6472 22.1C76.6472 23.076 76.5432 23.956 76.3352 24.74C76.1352 25.516 75.8712 26.212 75.5432 26.828C75.2152 27.452 74.8592 28.016 74.4752 28.52H72.8792ZM82.3659 26V18.74L80.7939 18.944V17.804L82.5579 17.036H84.1419V26H82.3659ZM87.8747 26.048C87.1307 26.048 86.5547 25.856 86.1467 25.472C85.7467 25.08 85.5467 24.508 85.5467 23.756V19.436C85.5467 18.66 85.7547 18.068 86.1707 17.66C86.5867 17.252 87.1587 17.048 87.8867 17.048H89.7347C90.4867 17.048 91.0507 17.26 91.4267 17.684C91.8027 18.1 91.9907 18.684 91.9907 19.436V23.756C91.9907 24.5 91.7907 25.068 91.3907 25.46C90.9987 25.852 90.4467 26.048 89.7347 26.048H87.8747ZM88.2947 24.452H89.2547C89.8947 24.452 90.2147 24.132 90.2147 23.492V19.604C90.2147 19.252 90.1347 19.004 89.9747 18.86C89.8147 18.716 89.5987 18.644 89.3267 18.644H88.2347C87.6267 18.644 87.3227 18.964 87.3227 19.604V23.48C87.3227 23.824 87.4067 24.072 87.5747 24.224C87.7427 24.376 87.9827 24.452 88.2947 24.452ZM95.6923 26.048C95.2843 26.048 94.9003 25.996 94.5403 25.892C94.1883 25.788 93.9003 25.6 93.6763 25.328C93.4603 25.048 93.3523 24.644 93.3523 24.116V22.904C93.3523 22.56 93.4403 22.256 93.6163 21.992C93.7923 21.72 94.0323 21.548 94.3363 21.476C93.9683 21.292 93.7403 21.068 93.6523 20.804C93.5723 20.532 93.5323 20.236 93.5323 19.916V18.908C93.5323 18.452 93.6243 18.092 93.8083 17.828C94.0003 17.556 94.2523 17.36 94.5643 17.24C94.8843 17.112 95.2323 17.048 95.6083 17.048H97.2883C97.6643 17.048 98.0043 17.112 98.3083 17.24C98.6203 17.36 98.8683 17.556 99.0523 17.828C99.2363 18.092 99.3283 18.452 99.3283 18.908V19.916C99.3283 20.052 99.3043 20.224 99.2563 20.432C99.2083 20.64 99.1283 20.832 99.0163 21.008C98.9043 21.176 98.7443 21.284 98.5363 21.332C98.8003 21.388 99.0003 21.508 99.1363 21.692C99.2803 21.868 99.3763 22.064 99.4243 22.28C99.4723 22.496 99.4963 22.692 99.4963 22.868V24.116C99.4963 24.636 99.3963 25.036 99.1963 25.316C99.0043 25.596 98.7443 25.788 98.4163 25.892C98.0883 25.996 97.7203 26.048 97.3123 26.048H95.6923ZM95.9923 20.708H96.8683C97.1643 20.708 97.3563 20.632 97.4443 20.48C97.5403 20.32 97.5883 20.124 97.5883 19.892V19.328C97.5883 19.008 97.5243 18.8 97.3963 18.704C97.2683 18.608 97.1003 18.56 96.8923 18.56H96.0043C95.7483 18.56 95.5603 18.612 95.4403 18.716C95.3203 18.82 95.2603 19.024 95.2603 19.328V19.892C95.2603 20.188 95.3163 20.4 95.4283 20.528C95.5483 20.648 95.7363 20.708 95.9923 20.708ZM96.0043 24.548H96.8923C97.2203 24.548 97.4403 24.484 97.5523 24.356C97.6643 24.22 97.7203 24.032 97.7203 23.792V23C97.7203 22.48 97.4443 22.22 96.8923 22.22H95.9923C95.7843 22.22 95.5883 22.284 95.4043 22.412C95.2203 22.54 95.1283 22.736 95.1283 23V23.792C95.1283 24.072 95.2043 24.268 95.3563 24.38C95.5083 24.492 95.7243 24.548 96.0043 24.548ZM100.455 23.24V21.8H104.127V23.24H100.455ZM104.704 26V24.572L107.668 21.632C108.02 21.288 108.28 20.976 108.448 20.696C108.624 20.408 108.712 20.096 108.712 19.76C108.712 19.44 108.616 19.188 108.424 19.004C108.232 18.82 107.892 18.728 107.404 18.728H104.908V17.336C105.292 17.264 105.716 17.2 106.18 17.144C106.652 17.08 107.176 17.048 107.752 17.048C108.448 17.048 108.992 17.144 109.384 17.336C109.784 17.528 110.068 17.804 110.236 18.164C110.404 18.524 110.488 18.96 110.488 19.472C110.488 20.072 110.368 20.596 110.128 21.044C109.888 21.492 109.532 21.948 109.06 22.412L107.068 24.392H110.764V26H104.704ZM115.684 25.988V24.116H111.796L111.46 23.276L114.34 17.12H116.152L113.572 22.604H115.684V20.876L116.032 19.856H117.46V22.604H118.372V23.828L117.46 24.116V25.988H115.684ZM119.112 23.24V21.8H122.784V23.24H119.112ZM123.979 26L126.619 18.896H122.839V17.12H128.443L128.911 17.876L125.971 26H123.979ZM129.759 26V24.572L132.723 21.632C133.075 21.288 133.335 20.976 133.503 20.696C133.679 20.408 133.767 20.096 133.767 19.76C133.767 19.44 133.671 19.188 133.479 19.004C133.287 18.82 132.947 18.728 132.459 18.728H129.963V17.336C130.347 17.264 130.771 17.2 131.235 17.144C131.707 17.08 132.231 17.048 132.807 17.048C133.503 17.048 134.047 17.144 134.439 17.336C134.839 17.528 135.123 17.804 135.291 18.164C135.459 18.524 135.543 18.96 135.543 19.472C135.543 20.072 135.423 20.596 135.183 21.044C134.943 21.492 134.587 21.948 134.115 22.412L132.123 24.392H135.819V26H129.759Z" fill="#24242E"/>
</svg>
