<svg width="263" height="94" fill="none" xmlns="http://www.w3.org/2000/svg"><path d="M1 25.884l19.632-11.942a37.775 37.775 0 0139.263 0v0a37.775 37.775 0 0039.263 0v0a37.775 37.775 0 0139.263 0v0a37.775 37.775 0 0039.263 0v0a37.775 37.775 0 0139.263 0v0a37.776 37.776 0 0039.264 0v0a37.775 37.775 0 0139.263 0v0a37.775 37.775 0 0039.263 0v0a37.775 37.775 0 0139.263 0v0a37.775 37.775 0 0039.263 0v0a37.775 37.775 0 0139.263 0v0a37.775 37.775 0 0039.263 0v0a37.776 37.776 0 0139.264 0v0a37.775 37.775 0 0039.263 0v0a37.775 37.775 0 0139.263 0v0a37.775 37.775 0 0039.263 0v0a37.775 37.775 0 0139.263 0v0a37.775 37.775 0 0039.263 0L747 2M1 59.176l19.632-11.942a37.775 37.775 0 0139.263 0v0a37.775 37.775 0 0039.263 0v0a37.775 37.775 0 0139.263 0v0a37.775 37.775 0 0039.263 0v0a37.775 37.775 0 0139.263 0v0a37.776 37.776 0 0039.264 0v0a37.775 37.775 0 0139.263 0v0a37.775 37.775 0 0039.263 0v0a37.775 37.775 0 0139.263 0v0a37.775 37.775 0 0039.263 0v0a37.775 37.775 0 0139.263 0v0a37.775 37.775 0 0039.263 0v0a37.776 37.776 0 0139.264 0v0a37.775 37.775 0 0039.263 0v0a37.775 37.775 0 0139.263 0v0a37.775 37.775 0 0039.263 0v0a37.775 37.775 0 0139.263 0v0a37.775 37.775 0 0039.263 0L747 35.292M1 92.468l19.632-11.942a37.775 37.775 0 0139.263 0v0a37.775 37.775 0 0039.263 0v0a37.775 37.775 0 0139.263 0v0a37.775 37.775 0 0039.263 0v0a37.775 37.775 0 0139.263 0v0a37.776 37.776 0 0039.264 0v0a37.775 37.775 0 0139.263 0v0a37.775 37.775 0 0039.263 0v0a37.775 37.775 0 0139.263 0v0a37.775 37.775 0 0039.263 0v0a37.775 37.775 0 0139.263 0v0a37.775 37.775 0 0039.263 0v0a37.776 37.776 0 0139.264 0v0a37.775 37.775 0 0039.263 0v0a37.775 37.775 0 0139.263 0v0a37.775 37.775 0 0039.263 0v0a37.775 37.775 0 0139.263 0v0a37.775 37.775 0 0039.263 0L747 68.585" stroke="#DCDCDC" stroke-width="3" stroke-linejoin="round" stroke-dasharray="3 12"/></svg>