<svg width="149" height="33" fill="none" xmlns="http://www.w3.org/2000/svg"><path fill-rule="evenodd" clip-rule="evenodd" d="M35.664 24.14c.034.107.068.18.136.215.034.036.068.072.102.072.034 0 .068-.036.102-.072a.551.551 0 00.137-.215l2.965-9.065h4.397l-4.397 11.358a3.676 3.676 0 01-.409.824c-.17.25-.375.502-.613.68-.239.216-.546.359-.887.466a4.38 4.38 0 01-1.295.18 4.38 4.38 0 01-1.295-.18 3.027 3.027 0 01-.886-.465c-.239-.18-.443-.43-.614-.681a3.677 3.677 0 01-.409-.824l-4.397-11.358h4.397l2.966 9.065zm8.214 4.3V15.074h4.09V28.44h-4.09zm12.953-7.202c.239 0 .511 0 .75-.036s.443-.107.614-.322c.204-.251.34-.645.34-1.147 0-.18-.034-.358-.068-.537a.877.877 0 00-.306-.502c-.17-.143-.376-.25-.58-.25-.239-.037-.443-.037-.682-.037h-2.284a.874.874 0 00-.374.072c-.103.072-.17.108-.205.215a1.79 1.79 0 00-.102.25c0 .073-.034.18-.034.252v2.078h2.931v-.036zm-7.056 7.201V17.583c0-.286.034-.573.103-.931.068-.358.204-.645.409-.896.136-.179.34-.322.613-.466.273-.143.648-.215 1.057-.215h7.022c.51 0 .988.072 1.465.18.443.107.852.358 1.227.788.307.322.546.788.682 1.361.17.573.239 1.326.239 2.293 0 .215 0 .538-.034.896-.035.358-.069.752-.137 1.182-.068.394-.204.789-.34 1.183-.137.394-.376.68-.614.931-.307.25-.648.466-1.09.573-.41.108-.819.18-1.16.18h-5.351v3.869h-4.09v-.072zm18.1-3.332h7.056c.307 0 .511-.035.58-.143.068-.072.136-.18.136-.287 0-.215-.069-.358-.239-.465a9.175 9.175 0 00-.545-.215l-4.909-1.433c-.375-.108-.681-.251-.92-.466a4.195 4.195 0 01-.545-.573c-.307-.43-.478-.896-.58-1.434a12.126 12.126 0 01-.102-1.54c0-.43.034-.86.102-1.362.068-.465.307-.931.682-1.325.204-.215.477-.395.818-.574.34-.179.784-.25 1.33-.25h8.385v3.332h-6.477c-.239 0-.409 0-.477.035a.254.254 0 00-.17.072.397.397 0 00-.205.358c0 .215.102.359.34.466.24.108.478.18.717.25l4.294 1.22c.273.07.58.178.92.357.342.144.614.359.853.61.205.214.34.43.477.68.136.251.205.538.273.788.068.287.102.538.102.825.034.25.034.501.034.752 0 .394-.034.824-.102 1.325a3.146 3.146 0 01-.511 1.326c-.17.25-.375.466-.58.61-.204.143-.409.25-.647.322a2.254 2.254 0 01-.682.107c-.239 0-.443.036-.648.036H67.91v-3.404h-.034zm17.998-2.472h2.624l-1.159-3.368a.281.281 0 01-.068-.179c-.034-.072-.068-.107-.068-.107-.034 0-.068.035-.068.107a.623.623 0 00-.069.18l-1.192 3.367zm-1.603-6.09l-4.703 11.894h4.329l.988-2.759h4.568l.988 2.76h4.329l-4.704-11.896c-.136-.358-.307-.645-.545-.86a2.255 2.255 0 00-.682-.501 2.832 2.832 0 00-.784-.215c-.273-.036-.58-.036-.886-.036-.512 0-.92.036-1.227.108-.307.071-.58.179-.818.322-.205.143-.41.322-.512.502-.102.215-.238.43-.34.68zm24.747 9.637c0 .108-.034.323-.068.573a1.6 1.6 0 01-.341.789c-.17.25-.443.501-.818.716-.375.215-.886.323-1.568.323-.239 0-.477 0-.716-.036-.238-.036-.477-.072-.716-.18a1.893 1.893 0 01-.681-.393 2.447 2.447 0 01-.614-.717l-4.602-6.807a.94.94 0 00-.17-.215c-.068-.072-.136-.108-.17-.108s-.069 0-.137.036-.102.143-.102.322v7.919h-3.17V17.297c0-.43.068-.788.239-1.11.17-.288.374-.538.647-.718a2.7 2.7 0 01.92-.394 5.092 5.092 0 011.057-.107c.17 0 .375 0 .614.036.238.036.477.071.716.143.238.072.477.215.715.358.239.18.443.394.648.681l4.602 6.843a.94.94 0 00.17.215c.068.072.102.108.205.108.102 0 .17-.036.17-.108.034-.071.034-.143.034-.215v-7.954h3.17v11.107h-.034zm5.249 2.257V18.407h-4.533v-3.332h13.157v3.332h-4.533V28.44h-4.091zm11.487 0c-.272 0-.545-.035-.784-.071-.272-.036-.511-.18-.75-.394-.306-.251-.443-.502-.511-.789a7.333 7.333 0 01-.068-.895v-9.172c0-.251.034-.502.102-.789.068-.25.205-.501.443-.752.239-.215.512-.358.784-.43a3.12 3.12 0 01.75-.107h9.135v3.224h-6.272c-.136 0-.238 0-.34.036-.103.036-.205.072-.273.143a.435.435 0 00-.171.323c-.034.143-.034.25-.034.322v1.003h6.92v2.902h-6.92v1.434c0 .143.034.25.069.322.034.072.068.143.136.18.102.107.204.143.375.178h6.613v3.26h-9.204v.072zm23.247 0h-4.09v-5.302h-4.602v5.302h-4.09V15.075h4.09v4.73h4.602v-4.73H149V28.44zM12.932 0C10.996 6.05 0 16.165 0 21.189 0 27.34 5.774 32.296 12.932 32.33c7.158-.034 12.932-4.99 12.932-11.141 0-5.024-10.996-15.14-12.932-21.189zM6.535 21.428c.242-.205.415-.512.415-.889 0-.615-.484-1.127-1.072-1.127-.588 0-1.072.512-1.072 1.128 0 .615.484 1.127 1.072 1.127.104 0 .242-.034.346-.068l2.593 6.46c-2.939-1.163-5.325-3.555-5.325-6.87 0-1.743 4.807-7.86 5.948-9.33 1.072-1.367 2.316-2.973 3.492-4.682 1.176 1.674 2.42 3.28 3.492 4.682 1.141 1.504 5.948 7.587 5.948 9.33 0 3.28-2.352 5.673-5.256 6.835l2.593-6.357c.07.034.173.034.277.034.588 0 1.072-.512 1.072-1.127 0-.616-.484-1.128-1.072-1.128-.588 0-1.072.512-1.072 1.128 0 .376.173.717.484.922L14.73 26.18l-1.59-6.357c.414-.137.726-.581.726-1.06 0-.615-.484-1.127-1.072-1.127-.588 0-1.072.512-1.072 1.127 0 .479.311.889.726 1.06l-1.556 5.912-4.357-4.306z" fill="#24242E"/></svg>