<svg width="137" height="30" fill="none" xmlns="http://www.w3.org/2000/svg"><path fill-rule="evenodd" clip-rule="evenodd" d="M36.251 8.069c.03.094.06.157.12.188.03.031.06.063.09.063s.059-.032.089-.063a.484.484 0 00.12-.188L39.267.126h3.853l-3.853 9.952c-.09.251-.21.502-.359.722a2.47 2.47 0 01-.537.596c-.21.189-.478.314-.777.409a3.838 3.838 0 01-1.135.157c-.448 0-.836-.063-1.135-.157a2.65 2.65 0 01-.776-.409 2.504 2.504 0 01-.538-.596 3.223 3.223 0 01-.358-.722L29.799.126h3.854l2.598 7.943zm7.199 3.767V.126h3.584v11.71H43.45zm11.35-6.31c.209 0 .448 0 .657-.032.209-.031.388-.094.537-.282.18-.22.3-.566.3-1.005 0-.157-.03-.314-.06-.471a.769.769 0 00-.27-.44c-.149-.125-.328-.22-.507-.22-.21-.03-.389-.03-.598-.03h-2a.765.765 0 00-.33.062c-.089.063-.149.094-.179.188-.03.063-.06.126-.09.22 0 .063-.029.157-.029.22v1.821H54.8v-.031zm-6.183 6.31V2.323c0-.25.03-.502.09-.816a1.71 1.71 0 01.358-.785c.12-.157.299-.282.538-.408.239-.126.567-.188.925-.188h6.153c.449 0 .867.062 1.285.157.388.094.746.314 1.075.69.269.283.478.691.598 1.193.149.503.208 1.162.208 2.01 0 .188 0 .47-.03.784-.03.314-.06.66-.119 1.037-.06.345-.179.69-.298 1.036-.12.345-.33.596-.538.816-.269.22-.568.408-.956.502a4.197 4.197 0 01-1.015.157H52.2v3.39h-3.584v-.062zm15.86-2.92h6.183c.269 0 .448-.031.508-.125.06-.063.12-.157.12-.251 0-.189-.06-.314-.21-.409a8.01 8.01 0 00-.478-.188l-4.3-1.256c-.33-.094-.598-.22-.807-.408a3.681 3.681 0 01-.478-.502c-.269-.377-.418-.785-.508-1.256-.06-.471-.09-.91-.09-1.35 0-.377.03-.754.09-1.193.06-.408.269-.816.597-1.162.18-.188.419-.345.717-.502.299-.157.687-.22 1.165-.22h7.348v2.92h-5.675c-.21 0-.359 0-.418.031-.06 0-.12.032-.15.063a.348.348 0 00-.179.314c0 .188.09.314.299.408.209.094.418.157.627.22l3.764 1.067c.239.063.507.157.806.314.299.126.538.314.747.534.179.188.298.377.418.597.12.22.18.47.239.69.06.251.09.471.09.722.03.22.03.44.03.66 0 .345-.03.722-.09 1.161a2.77 2.77 0 01-.448 1.162c-.15.22-.329.408-.508.534a1.94 1.94 0 01-.568.282 1.968 1.968 0 01-.597.094c-.21 0-.388.032-.568.032h-7.646V8.916h-.03zM80.248 6.75h2.3l-1.016-2.951a.247.247 0 01-.06-.157.38.38 0 00-.06-.094c-.029 0-.059.031-.059.094-.03.063-.06.125-.06.157L80.248 6.75zm-1.404-5.337l-4.122 10.423h3.794l.866-2.417h4.002l.866 2.417h3.794L83.922 1.413c-.12-.314-.269-.565-.478-.754a1.975 1.975 0 00-.597-.44 2.484 2.484 0 00-.687-.188A6.183 6.183 0 0081.383 0c-.448 0-.806.031-1.075.094a2.475 2.475 0 00-.717.283c-.18.125-.359.282-.448.44-.09.188-.21.376-.299.596zm21.685 8.445c0 .094-.03.283-.06.502a1.4 1.4 0 01-.298.691c-.15.22-.389.44-.717.628-.329.188-.777.283-1.374.283-.21 0-.418 0-.627-.032-.21-.031-.419-.063-.628-.157a1.662 1.662 0 01-.597-.345 2.154 2.154 0 01-.538-.628l-4.032-5.965a.824.824 0 00-.15-.189c-.06-.062-.119-.094-.149-.094s-.06 0-.12.032c-.059.031-.089.125-.089.282v6.939h-2.778V2.072c0-.377.06-.69.21-.973.149-.251.328-.471.567-.628a2.35 2.35 0 01.806-.345c.3-.063.598-.095.926-.095.15 0 .329 0 .538.032.209.031.418.063.627.125.21.063.418.189.627.314.21.157.389.346.568.597l4.032 5.996c.03.063.09.126.15.189.06.062.09.094.179.094.09 0 .15-.032.15-.094.029-.063.029-.126.029-.189V.125h2.778v9.733h-.03zm4.6 1.978v-8.79h-3.973V.125h11.53v2.92h-3.973v8.79h-3.584zm10.066 0c-.239 0-.478-.031-.687-.063-.239-.031-.448-.157-.658-.345-.268-.22-.388-.44-.448-.69-.029-.252-.059-.503-.059-.786V1.915c0-.22.03-.44.089-.69.06-.22.18-.44.389-.66.209-.188.448-.314.687-.377.239-.062.477-.094.657-.094h8.005V2.92h-5.496c-.12 0-.209 0-.299.031a.59.59 0 00-.239.126.378.378 0 00-.149.282c-.03.126-.03.22-.03.283v.879h6.063v2.543h-6.063V8.32c0 .125.03.22.06.282.029.063.059.126.119.157.09.094.179.126.329.157h5.794v2.857h-8.064v.063zm20.37 0h-3.584V7.19h-4.032v4.646h-3.585V.126h3.585V4.27h4.032V.126h3.584v11.71zM11.332 0C9.635 5.3 0 14.165 0 18.567c0 5.39 5.06 9.733 11.332 9.763 6.272-.03 11.332-4.372 11.332-9.763 0-4.402-9.635-13.266-11.332-18.567zM5.727 18.777c.212-.18.363-.45.363-.779 0-.539-.424-.988-.94-.988-.514 0-.938.45-.938.988 0 .54.424.989.939.989.09 0 .212-.03.303-.06l2.272 5.66c-2.575-1.018-4.666-3.115-4.666-6.02 0-1.527 4.212-6.888 5.212-8.175.94-1.198 2.03-2.606 3.06-4.103 1.03 1.467 2.121 2.875 3.06 4.103 1 1.317 5.212 6.648 5.212 8.175 0 2.875-2.06 4.971-4.606 5.99l2.273-5.57c.06.03.151.03.242.03.515 0 .94-.45.94-.989 0-.539-.425-.988-.94-.988-.515 0-.94.45-.94.988 0 .33.152.63.425.809l-4.09 4.103-1.394-5.57c.363-.12.636-.51.636-.929 0-.539-.424-.988-.94-.988-.514 0-.938.449-.938.988 0 .42.272.779.636.928L9.544 22.55l-3.817-3.773z" fill="#24242E"/><path d="M31.928 24.416v-1.968H29.96v-1.44h1.968V19.04h1.44v1.968h1.968v1.44h-1.968v1.968h-1.44zm5.8 1.584l2.64-7.104h-3.78V17.12h5.605l.468.756L39.72 26h-1.992zm11.19 2.52a11.5 11.5 0 01-1.091-1.644 9.19 9.19 0 01-.792-2.076c-.192-.784-.288-1.688-.288-2.712 0-.968.104-1.844.312-2.628.208-.784.476-1.488.804-2.112.328-.624.68-1.18 1.056-1.668h1.584c-.344.568-.668 1.18-.972 1.836-.296.656-.54 1.364-.732 2.124a10.286 10.286 0 00-.276 2.448c0 .872.08 1.672.24 2.4.168.72.4 1.404.696 2.052.296.656.644 1.316 1.044 1.98h-1.584zm6.273-2.532v-1.872h-3.888l-.336-.84 2.88-6.156h1.812l-2.58 5.484h2.112v-1.728l.348-1.02h1.428v2.748h.912v1.224l-.912.288v1.872h-1.776zm6.278.072c-.392 0-.788-.016-1.188-.048a9.353 9.353 0 01-1.068-.144v-1.404h2.088c.6 0 1.04-.184 1.32-.552.28-.376.42-.928.42-1.656-.272.08-.576.136-.912.168-.328.024-.692.036-1.092.036-.88 0-1.492-.18-1.836-.54-.344-.368-.516-.868-.516-1.5v-1.272c0-.752.204-1.288.612-1.608.408-.32.936-.48 1.584-.48h1.284c.432 0 .812.068 1.14.204.336.128.616.356.84.684.224.32.392.764.504 1.332.12.568.18 1.288.18 2.16 0 1.16-.136 2.076-.408 2.748-.264.672-.648 1.152-1.152 1.44-.496.288-1.096.432-1.8.432zm.072-5.112h1.5c0-.608-.044-1.076-.132-1.404-.088-.336-.224-.568-.408-.696-.176-.128-.404-.192-.684-.192h-.54c-.256 0-.456.064-.6.192-.144.128-.216.348-.216.66v.576c0 .352.084.584.252.696.176.112.452.168.828.168zm7.637 5.112c-.488 0-1.004-.02-1.548-.06-.536-.04-1.04-.084-1.512-.132v-1.404h3.132c.432 0 .728-.104.888-.312.16-.208.24-.44.24-.696v-.612c0-.28-.072-.5-.216-.66-.136-.168-.368-.252-.696-.252h-.696c-.264 0-.464.056-.6.168-.128.104-.212.268-.252.492h-1.68l.252-5.472h5.328v1.596h-3.804l-.096 2.112c.256-.264.66-.396 1.212-.396h.972c.688 0 1.204.2 1.548.6.344.4.516.896.516 1.488v1.308c0 .784-.256 1.352-.768 1.704-.512.352-1.252.528-2.22.528zm3.701 2.46c.36-.584.688-1.204.984-1.86.304-.648.544-1.348.72-2.1a10.34 10.34 0 00.276-2.46c0-.864-.08-1.656-.24-2.376a9.788 9.788 0 00-.672-2.052 18.79 18.79 0 00-1.068-1.992h1.596c.4.496.764 1.048 1.092 1.656.328.608.588 1.3.78 2.076.2.776.3 1.672.3 2.688 0 .976-.104 1.856-.312 2.64a9.444 9.444 0 01-.792 2.088 11.99 11.99 0 01-1.068 1.692H72.88zM82.366 26v-7.26l-1.572.204v-1.14l1.764-.768h1.584V26h-1.776zm5.509.048c-.744 0-1.32-.192-1.728-.576-.4-.392-.6-.964-.6-1.716v-4.32c0-.776.208-1.368.624-1.776.416-.408.988-.612 1.716-.612h1.848c.752 0 1.316.212 1.692.636.376.416.564 1 .564 1.752v4.32c0 .744-.2 1.312-.6 1.704-.392.392-.944.588-1.656.588h-1.86zm.42-1.596h.96c.64 0 .96-.32.96-.96v-3.888c0-.352-.08-.6-.24-.744-.16-.144-.376-.216-.648-.216h-1.092c-.608 0-.912.32-.912.96v3.876c0 .344.084.592.252.744.168.152.408.228.72.228zm7.397 1.596c-.408 0-.792-.052-1.152-.156a1.724 1.724 0 01-.864-.564c-.216-.28-.324-.684-.324-1.212v-1.212c0-.344.088-.648.264-.912.176-.272.416-.444.72-.516-.368-.184-.596-.408-.684-.672a3.136 3.136 0 01-.12-.888v-1.008c0-.456.092-.816.276-1.08.192-.272.444-.468.756-.588.32-.128.668-.192 1.044-.192h1.68c.376 0 .716.064 1.02.192.312.12.56.316.744.588.184.264.276.624.276 1.08v1.008c0 .136-.024.308-.072.516-.048.208-.128.4-.24.576a.758.758 0 01-.48.324c.264.056.464.176.6.36.144.176.24.372.288.588.048.216.072.412.072.588v1.248c0 .52-.1.92-.3 1.2-.192.28-.452.472-.78.576a3.644 3.644 0 01-1.104.156h-1.62zm.3-5.34h.876c.296 0 .488-.076.576-.228.096-.16.144-.356.144-.588v-.564c0-.32-.064-.528-.192-.624-.128-.096-.296-.144-.504-.144h-.888c-.256 0-.444.052-.564.156-.12.104-.18.308-.18.612v.564c0 .296.056.508.168.636.12.12.308.18.564.18zm.012 3.84h.888c.328 0 .548-.064.66-.192.112-.136.168-.324.168-.564V23c0-.52-.276-.78-.828-.78h-.9c-.208 0-.404.064-.588.192-.184.128-.276.324-.276.588v.792c0 .28.076.476.228.588.152.112.368.168.648.168zm4.451-1.308V21.8h3.672v1.44h-3.672zm4.249 2.76v-1.428l2.964-2.94c.352-.344.612-.656.78-.936.176-.288.264-.6.264-.936 0-.32-.096-.572-.288-.756-.192-.184-.532-.276-1.02-.276h-2.496v-1.392c.384-.072.808-.136 1.272-.192a11.76 11.76 0 011.572-.096c.696 0 1.24.096 1.632.288.4.192.684.468.852.828.168.36.252.796.252 1.308 0 .6-.12 1.124-.36 1.572-.24.448-.596.904-1.068 1.368l-1.992 1.98h3.696V26h-6.06zm10.98-.012v-1.872h-3.888l-.336-.84 2.88-6.156h1.812l-2.58 5.484h2.112v-1.728l.348-1.02h1.428v2.748h.912v1.224l-.912.288v1.872h-1.776zm3.428-2.748V21.8h3.672v1.44h-3.672zm4.867 2.76l2.64-7.104h-3.78V17.12h5.604l.468.756-2.94 8.124h-1.992zm5.78 0v-1.428l2.964-2.94c.352-.344.612-.656.78-.936.176-.288.264-.6.264-.936 0-.32-.096-.572-.288-.756-.192-.184-.532-.276-1.02-.276h-2.496v-1.392c.384-.072.808-.136 1.272-.192a11.76 11.76 0 011.572-.096c.696 0 1.24.096 1.632.288.4.192.684.468.852.828.168.36.252.796.252 1.308 0 .6-.12 1.124-.36 1.572-.24.448-.596.904-1.068 1.368l-1.992 1.98h3.696V26h-6.06z" fill="#24242E"/></svg>