<svg width="86" height="14" fill="none" xmlns="http://www.w3.org/2000/svg"><path d="M6.732 1.244a.3.3 0 01.536 0l1.824 3.61a.3.3 0 00.226.162l4.069.58a.3.3 0 01.164.515L10.617 8.9a.3.3 0 00-.09.27l.695 3.95a.3.3 0 01-.433.318l-3.652-1.875a.3.3 0 00-.274 0l-3.652 1.875a.3.3 0 01-.433-.319l.694-3.95a.3.3 0 00-.089-.268L.45 6.11a.3.3 0 01.164-.515l4.07-.58a.3.3 0 00.225-.162l1.824-3.61zm18 0a.3.3 0 01.536 0l1.825 3.61a.3.3 0 00.225.162l4.069.58a.3.3 0 01.164.515L28.617 8.9a.3.3 0 00-.09.27l.695 3.95a.3.3 0 01-.433.318l-3.652-1.875a.3.3 0 00-.274 0l-3.652 1.875a.3.3 0 01-.433-.319l.694-3.95a.3.3 0 00-.089-.268L18.45 6.11a.3.3 0 01.164-.515l4.07-.58a.3.3 0 00.224-.162l1.825-3.61zm18 0a.3.3 0 01.536 0l1.825 3.61a.3.3 0 00.225.162l4.069.58a.3.3 0 01.164.515L46.617 8.9a.3.3 0 00-.09.27l.695 3.95a.3.3 0 01-.433.318l-3.652-1.875a.3.3 0 00-.274 0l-3.652 1.875a.3.3 0 01-.433-.319l.694-3.95a.3.3 0 00-.089-.268L36.45 6.11a.3.3 0 01.164-.515l4.07-.58a.3.3 0 00.224-.162l1.825-3.61zm18 0a.3.3 0 01.536 0l1.825 3.61a.3.3 0 00.225.162l4.069.58a.3.3 0 01.164.515L64.617 8.9a.3.3 0 00-.09.27l.695 3.95a.3.3 0 01-.433.318l-3.652-1.875a.3.3 0 00-.274 0l-3.652 1.875a.3.3 0 01-.433-.319l.694-3.95a.3.3 0 00-.089-.268L54.45 6.11a.3.3 0 01.164-.515l4.07-.58a.3.3 0 00.224-.162l1.825-3.61zm18 0a.3.3 0 01.536 0l1.825 3.61a.3.3 0 00.225.162l4.069.58a.3.3 0 01.164.515L82.617 8.9a.3.3 0 00-.09.27l.695 3.95a.3.3 0 01-.433.318l-3.652-1.875a.3.3 0 00-.274 0l-3.652 1.875a.3.3 0 01-.433-.319l.694-3.95a.3.3 0 00-.089-.268L72.45 6.11a.3.3 0 01.164-.515l4.07-.58a.3.3 0 00.224-.162l1.825-3.61z" fill="#FFDE67"/></svg>