<svg width="98" height="126" fill="none" xmlns="http://www.w3.org/2000/svg"><path d="M15.972 124H7.589a5.58 5.58 0 01-3.952-1.641A5.604 5.604 0 012 118.4V98.8c0-1.485.589-2.91 1.637-3.96a5.583 5.583 0 013.952-1.64h8.383m19.56-5.6V76.4a8.408 8.408 0 00-2.455-5.94A8.374 8.374 0 0027.149 68L15.972 93.2V124h31.52a5.582 5.582 0 003.683-1.333 5.604 5.604 0 001.906-3.427l3.856-25.2a5.61 5.61 0 00-1.308-4.515 5.59 5.59 0 00-4.281-1.925H35.532z" stroke="#1E489B" stroke-width="3" stroke-linecap="round" stroke-linejoin="round"/><path d="M70.637 68h-5.182a3.483 3.483 0 01-2.443-.996A3.373 3.373 0 0162 64.6V52.7a3.37 3.37 0 011.012-2.404 3.483 3.483 0 012.443-.996h5.182m12.092-3.4v-6.8a5.06 5.06 0 00-1.518-3.606A5.225 5.225 0 0077.547 34l-6.91 15.3V68h19.485a3.489 3.489 0 002.277-.81 3.387 3.387 0 001.178-2.08l2.384-15.3a3.35 3.35 0 00-.098-1.458 3.384 3.384 0 00-.71-1.283 3.451 3.451 0 00-1.193-.871 3.502 3.502 0 00-1.454-.298H82.73z" stroke="#1E489B" stroke-width="2.3" stroke-linecap="round" stroke-linejoin="round"/><path d="M51.827 22H48.93a1.855 1.855 0 01-1.365-.615A2.197 2.197 0 0147 19.9v-7.35c0-.557.203-1.091.566-1.485a1.855 1.855 0 011.365-.615h2.896m6.757-2.1v-4.2c0-.835-.305-1.637-.848-2.227A2.783 2.783 0 0055.688 1l-3.861 9.45V22h10.888a1.84 1.84 0 001.273-.5c.354-.328.588-.784.658-1.285l1.332-9.45a2.275 2.275 0 00-.055-.9 2.16 2.16 0 00-.397-.793 1.951 1.951 0 00-.666-.538 1.799 1.799 0 00-.813-.184h-5.463z" stroke="#1E489B" stroke-width="1.8" stroke-linecap="round" stroke-linejoin="round"/></svg>