<svg width="65" height="65" fill="none" xmlns="http://www.w3.org/2000/svg"><g clip-path="url(#clip0)"><path d="M61.95 57.162h-4.543V32.664a.952.952 0 10-1.904 0v24.498H41.519V25.215c0-.246.2-.445.446-.445h13.092c.246 0 .445.2.445.445v2.998a.952.952 0 101.905 0v-2.998a2.352 2.352 0 00-2.35-2.35h-5.594v-7.058l11.307-5.498a1.775 1.775 0 001.005-1.607c0-.69-.385-1.306-1.005-1.608L50.128 1.92a1.777 1.777 0 00-1.73.092 1.78 1.78 0 00-.84 1.515v19.338h-5.593a2.352 2.352 0 00-2.35 2.35V35.45H26.077a2.352 2.352 0 00-2.35 2.349v8.421H10.19a2.352 2.352 0 00-2.349 2.35v8.592H3.05A3.053 3.053 0 000 60.212a3.053 3.053 0 003.05 3.05h58.9a3.053 3.053 0 003.05-3.05 3.053 3.053 0 00-3.05-3.05zM49.463 3.714l10.258 4.988-10.258 4.987V3.714zM9.744 48.57c0-.246.2-.446.445-.446h13.538v2.523a.952.952 0 101.905 0V37.8c0-.246.2-.445.445-.445h13.538V57.16H25.632V55.1a.952.952 0 10-1.905 0v2.063H9.744V48.57zM61.95 61.357H3.05a1.147 1.147 0 01-1.146-1.145c0-.632.514-1.146 1.146-1.146h58.9a1.147 1.147 0 010 2.291z" fill="#9898A7"/></g><defs><clipPath id="clip0"><path fill="#fff" d="M0 0h65v65H0z"/></clipPath></defs></svg>