<svg width="593" height="253" fill="none" xmlns="http://www.w3.org/2000/svg"><path d="M2 68.213l64.9-36.99a100 100 0 0199.035 0l15.381 8.767a100.001 100.001 0 0099.036 0l15.382-8.767a100 100 0 0199.035 0l15.382 8.767a100 100 0 0099.035 0l15.382-8.767a100 100 0 0199.035 0l15.382 8.767a100 100 0 0099.035 0l15.382-8.767a100 100 0 0199.035 0l15.382 8.767a100 100 0 0099.035 0l15.382-8.767c30.694-17.494 68.344-17.494 99.034 0l15.38 8.767a100.009 100.009 0 0099.04 0l15.38-8.767c30.69-17.494 68.34-17.494 99.04 0l15.38 8.767a99.99 99.99 0 0099.03 0l15.38-8.767c30.7-17.494 68.35-17.494 99.04 0l15.38 8.767a100.009 100.009 0 0099.04 0l15.38-8.767a99.99 99.99 0 0199.03 0l15.39 8.767a99.99 99.99 0 0099.03 0l15.38-8.767a100.009 100.009 0 0199.04 0l15.38 8.767a99.99 99.99 0 0099.03 0L2175.92 3M2 159.116l64.9-36.99a100.002 100.002 0 0199.035 0l15.381 8.767a100.003 100.003 0 0099.036 0l15.382-8.767a100.001 100.001 0 0199.035 0l15.382 8.767a100.001 100.001 0 0099.035 0l15.382-8.767a100.001 100.001 0 0199.035 0l15.382 8.767a100.001 100.001 0 0099.035 0l15.382-8.767a100.001 100.001 0 0199.035 0l15.382 8.767a100.001 100.001 0 0099.035 0l15.382-8.767c30.694-17.494 68.344-17.494 99.034 0l15.38 8.767a100.01 100.01 0 0099.04 0l15.38-8.767c30.69-17.494 68.34-17.494 99.04 0l15.38 8.767a99.992 99.992 0 0099.03 0l15.38-8.767c30.7-17.494 68.35-17.494 99.04 0l15.38 8.767a100.01 100.01 0 0099.04 0l15.38-8.767a99.992 99.992 0 0199.03 0l15.39 8.767a99.992 99.992 0 0099.03 0l15.38-8.767a100.01 100.01 0 0199.04 0l15.38 8.767a99.992 99.992 0 0099.03 0l64.9-36.99M2 250.02l64.9-36.99a100.002 100.002 0 0199.035 0l15.381 8.767a100.003 100.003 0 0099.036 0l15.382-8.767a100.001 100.001 0 0199.035 0l15.382 8.767a100.001 100.001 0 0099.035 0l15.382-8.767a100.001 100.001 0 0199.035 0l15.382 8.767a100.001 100.001 0 0099.035 0l15.382-8.767a100.001 100.001 0 0199.035 0l15.382 8.767a100.001 100.001 0 0099.035 0l15.382-8.767c30.694-17.494 68.344-17.494 99.034 0l15.38 8.767a100.01 100.01 0 0099.04 0l15.38-8.767c30.69-17.494 68.34-17.494 99.04 0l15.38 8.767a99.992 99.992 0 0099.03 0l15.38-8.767c30.7-17.494 68.35-17.494 99.04 0l15.38 8.767a100.01 100.01 0 0099.04 0l15.38-8.767a99.992 99.992 0 0199.03 0l15.39 8.767a99.992 99.992 0 0099.03 0l15.38-8.767a100.01 100.01 0 0199.04 0l15.38 8.767a99.992 99.992 0 0099.03 0l64.9-36.99" stroke="#353542" stroke-width="6" stroke-linejoin="round" stroke-dasharray="4 12"/></svg>