<svg width="65" height="65" fill="none" xmlns="http://www.w3.org/2000/svg"><path d="M55.86 6.094a1.016 1.016 0 00-1.016 1.015v5.079H10.156V7.109a1.016 1.016 0 00-1.015-1.015 7.117 7.117 0 00-7.11 7.11V52.01a6.906 6.906 0 006.896 6.896h47.146a6.906 6.906 0 006.896-6.9V13.203a7.118 7.118 0 00-7.11-7.11zm-51.797 7.11a5.086 5.086 0 014.062-4.977v36.532a7.1 7.1 0 00-4.063 2.065v-33.62zM60.937 52.01a4.875 4.875 0 01-4.864 4.865H8.927a4.875 4.875 0 01-4.864-4.869v-.21A5.084 5.084 0 019.14 46.72a1.016 1.016 0 001.015-1.016V14.22h44.688v31.484a1.016 1.016 0 001.015 1.016 5.084 5.084 0 015.078 5.078v.213zm0-5.185a7.1 7.1 0 00-4.062-2.065V8.227a5.087 5.087 0 014.063 4.976v33.622z" fill="#9898A7"/><path d="M51.797 20.313H22.344a1.016 1.016 0 00-1.016 1.015v7.11h-8.125a1.015 1.015 0 00-1.015 1.015v20.313a1.016 1.016 0 001.015 1.015h24.375a1.016 1.016 0 001.016-1.015V36.563h7.11a1.016 1.016 0 100-2.032H27.421a1.016 1.016 0 00-1.016 1.016v5.078a1.016 1.016 0 002.032 0v-4.063h8.125V48.75h-8.126v-4.063a1.016 1.016 0 10-2.03 0v4.063H14.218v-8.125h8.125a1.016 1.016 0 000-2.031h-8.125v-8.125h8.125a1.016 1.016 0 001.015-1.016v-7.11h13.203v8.126a1.016 1.016 0 002.032 0v-8.125h5.148a8.133 8.133 0 007.04 7.039V48.75h-8.126a1.016 1.016 0 000 2.031h9.14a1.016 1.016 0 001.017-1.015V21.328a1.015 1.015 0 00-1.016-1.015zm-6.002 2.03h4.986v4.988a6.102 6.102 0 01-4.986-4.987z" fill="#9898A7"/></svg>