<svg width="65" height="65" fill="none" xmlns="http://www.w3.org/2000/svg"><g clip-path="url(#clip0)" fill="#9898A7"><path d="M53.256 25.956H11.743a.953.953 0 100 1.906h41.513a.953.953 0 000-1.906zm-14.785 4.807H11.743a.953.953 0 100 1.906h26.728a.953.953 0 000-1.906zm-3.049 6.712a.953.953 0 000-1.906H11.743a.953.953 0 000 1.906h23.679zm4.025-16.261A2.055 2.055 0 0041.5 19.16v-1.676a2.055 2.055 0 00-2.053-2.053H25.552a2.055 2.055 0 00-2.053 2.053v1.676c0 1.132.921 2.053 2.053 2.053h13.895zM25.405 19.16v-1.676c0-.08.066-.147.147-.147h13.896c.08 0 .147.066.147.147v1.676a.147.147 0 01-.147.147H25.552a.147.147 0 01-.147-.147z"/><path d="M35.877 44.823H11.93a6.943 6.943 0 00-4.981-5.07v-8.88a.953.953 0 10-1.906 0v8.912c0 .852.57 1.593 1.386 1.802a5.043 5.043 0 013.658 3.723 1.85 1.85 0 001.81 1.419h23.98a.953.953 0 000-1.906zm22.694-29.119a5.043 5.043 0 01-3.659-3.723 1.85 1.85 0 00-1.81-1.419H11.898a1.85 1.85 0 00-1.81 1.419 5.043 5.043 0 01-3.659 3.723c-.816.21-1.386.95-1.386 1.802v8.911a.953.953 0 101.906 0v-8.879a6.945 6.945 0 004.982-5.07h41.138a6.944 6.944 0 004.982 5.07v16.92a.953.953 0 101.905 0V17.506c0-.852-.57-1.592-1.385-1.802z"/><path d="M60.61 5.638H4.39c-2.42 0-4.39 1.97-4.39 4.39v37.235c0 2.421 1.97 4.39 4.39 4.39h38.431l-1.562 4.088c-.422 1.103.586 2.22 1.727 1.912l1.756-.474.994 1.527c.645.99 2.14.83 2.562-.273l1.333-3.487 1.333 3.487c.422 1.104 1.917 1.262 2.562.273l.994-1.527 1.756.474c1.14.308 2.149-.809 1.727-1.912l-1.563-4.087h4.17c2.42 0 4.39-1.97 4.39-4.39V10.027c0-2.42-1.97-4.39-4.39-4.39zM41.457 40.563a.698.698 0 01.4-1.227 2.605 2.605 0 002.324-3.2.698.698 0 011.044-.758 2.605 2.605 0 003.76-1.222.698.698 0 011.291 0 2.605 2.605 0 003.761 1.222.698.698 0 011.044.758 2.605 2.605 0 002.325 3.2c.62.05.872.821.398 1.227a2.605 2.605 0 000 3.955.698.698 0 01-.398 1.227 2.605 2.605 0 00-2.325 3.2.698.698 0 01-1.044.758 2.605 2.605 0 00-3.76 1.222.698.698 0 01-1.291 0 2.606 2.606 0 00-3.761-1.222.698.698 0 01-1.044-.758 2.605 2.605 0 00-2.325-3.2.698.698 0 01-.399-1.227 2.605 2.605 0 000-3.955zM46.84 56.91l-.683-1.05a1.443 1.443 0 00-1.588-.607l-1.208.326 1.476-3.86c.473.003.948-.124 1.38-.388a.699.699 0 011.01.328 2.582 2.582 0 001.132 1.28l-1.519 3.97zm7.853-1.657a1.442 1.442 0 00-1.588.607l-.683 1.05-1.519-3.972a2.584 2.584 0 001.132-1.279.699.699 0 011.01-.328 2.6 2.6 0 001.38.388l1.475 3.86-1.207-.326zm8.401-7.989a2.487 2.487 0 01-2.484 2.485h-3.678a2.62 2.62 0 00.003-1.245.69.69 0 01.115-.572.691.691 0 01.509-.286c2.308-.186 3.246-3.065 1.486-4.574a.699.699 0 010-1.061c1.757-1.507.824-4.387-1.486-4.573a.699.699 0 01-.624-.86c.536-2.251-1.911-4.033-3.89-2.826a.699.699 0 01-1.01-.328c-.89-2.137-3.917-2.14-4.809 0a.699.699 0 01-1.009.328c-1.977-1.207-4.427.574-3.89 2.827a.699.699 0 01-.624.858c-2.308.187-3.246 3.065-1.486 4.574a.699.699 0 010 1.061c-1.758 1.507-.825 4.388 1.486 4.574a.699.699 0 01.624.858c-.102.425-.096.849.003 1.245H4.39a2.488 2.488 0 01-2.484-2.485V10.028A2.487 2.487 0 014.39 7.543h56.22a2.488 2.488 0 012.484 2.485v37.235z"/><path d="M49.63 48.12a5.585 5.585 0 005.58-5.58 5.585 5.585 0 00-5.58-5.578 5.585 5.585 0 00-5.578 5.579 5.585 5.585 0 005.579 5.578zm0-9.252a3.677 3.677 0 013.674 3.673 3.677 3.677 0 01-3.673 3.673 3.677 3.677 0 01-3.673-3.673 3.677 3.677 0 013.673-3.673z"/></g><defs><clipPath id="clip0"><path fill="#fff" d="M0 0h65v65H0z"/></clipPath></defs></svg>