<svg width="65" height="65" fill="none" xmlns="http://www.w3.org/2000/svg"><path d="M48.555 38.522a.954.954 0 00-.954.953v4.44a2.904 2.904 0 00-1.945 2.736c0 1.599 1.3 2.9 2.899 2.9a2.903 2.903 0 002.737-1.947h2.337a.953.953 0 100-1.908l-2.337.001a2.912 2.912 0 00-1.784-1.783v-4.439a.953.953 0 00-.953-.953zm0 9.121a.993.993 0 010-1.984.993.993 0 010 1.984zM30.23 52.87H3.843a1.937 1.937 0 01-1.935-1.936V17.46h53.689v11.43a.954.954 0 101.907 0V10.664a3.847 3.847 0 00-3.843-3.842H51.26V5.775a3.875 3.875 0 00-3.871-3.871 3.875 3.875 0 00-3.871 3.87v1.048h-4.682V5.775a3.875 3.875 0 00-3.871-3.871 3.875 3.875 0 00-3.871 3.87v1.048H26.41V5.775a3.875 3.875 0 00-3.87-3.871 3.875 3.875 0 00-3.872 3.87v1.048h-4.682V5.775a3.875 3.875 0 00-3.871-3.871 3.875 3.875 0 00-3.871 3.87v1.048H3.842A3.847 3.847 0 000 10.664v40.27a3.847 3.847 0 003.842 3.842h26.389a.954.954 0 000-1.907zM45.425 5.774c0-1.083.881-1.964 1.964-1.964s1.964.88 1.964 1.964v4.001a1.966 1.966 0 01-1.964 1.964 1.966 1.966 0 01-1.964-1.964v-4zM34.964 3.81c1.082 0 1.963.88 1.963 1.964v4.001a1.966 1.966 0 01-1.963 1.964A1.966 1.966 0 0133 9.776V5.775c0-1.083.88-1.964 1.964-1.964zM20.575 5.775c0-1.083.881-1.964 1.964-1.964s1.964.88 1.964 1.964v4.001a1.966 1.966 0 01-1.964 1.964 1.966 1.966 0 01-1.964-1.964V5.775zm-12.424 0c0-1.083.88-1.964 1.964-1.964 1.082 0 1.963.88 1.963 1.964v4.002c0 1.082-.88 1.963-1.963 1.963A1.966 1.966 0 018.15 9.776V5.775zm-6.244 4.89c0-1.068.868-1.936 1.935-1.936h2.402v1.047a3.875 3.875 0 003.87 3.871 3.875 3.875 0 003.872-3.87V8.728h4.682v1.047a3.875 3.875 0 003.871 3.871 3.875 3.875 0 003.87-3.87V8.728h4.683v1.047a3.875 3.875 0 003.871 3.871 3.875 3.875 0 003.871-3.87V8.728h4.683v1.047a3.875 3.875 0 003.87 3.871 3.875 3.875 0 003.872-3.87V8.728h2.4c1.068 0 1.936.868 1.936 1.935v4.89H1.907v-4.89z" fill="#9898A7"/><path d="M14.92 23.468a1.835 1.835 0 00-1.833-1.833H6.92c-1.01 0-1.833.822-1.833 1.832v6.167c0 1.01.822 1.832 1.833 1.832h6.166c1.01 0 1.833-.822 1.833-1.832v-6.166zm-1.908 6.091H6.995v-6.017h6.017v6.017zm14.406-6.091a1.835 1.835 0 00-1.833-1.833H19.42c-1.01 0-1.833.822-1.833 1.832v6.167c0 1.01.823 1.832 1.833 1.832h6.166c1.01 0 1.833-.822 1.833-1.832v-6.166zm-1.907 6.091h-6.017v-6.017h6.017v6.017zm-12.424 7.843H6.92c-1.01 0-1.833.822-1.833 1.833V45.4c0 1.01.822 1.832 1.833 1.832h6.166c1.01 0 1.833-.822 1.833-1.832v-6.166c0-1.01-.822-1.833-1.833-1.833zm-.075 7.924H6.995V39.31h6.017v6.017zm12.573-7.924H19.42c-1.01 0-1.833.822-1.833 1.833V45.4c0 1.01.823 1.832 1.833 1.832h6.166c1.01 0 1.833-.822 1.833-1.832v-6.166c0-1.01-.822-1.833-1.833-1.833zm-.074 7.924h-6.017V39.31h6.017v6.017zm36.601-7.971l1.32-1.32a2.698 2.698 0 000-3.818l-.992-.992a2.698 2.698 0 00-3.818 0l-1.435 1.435a16.344 16.344 0 00-4.98-2.044v-1.68a2.756 2.756 0 001.974-2.639v-.945a2.755 2.755 0 00-2.751-2.751h-5.75a2.755 2.755 0 00-2.751 2.751v.945c0 1.247.834 2.303 1.974 2.64v1.679a16.345 16.345 0 00-4.98 2.044l-1.28-1.281a1.835 1.835 0 001.273-1.745v-6.166c0-1.01-.822-1.833-1.833-1.833h-6.165a1.835 1.835 0 00-1.833 1.833v6.166c0 1.01.822 1.832 1.832 1.832h2.512l-.751.751a2.698 2.698 0 000 3.818l1.32 1.32a16.35 16.35 0 00-2.888 9.296c0 9.068 7.377 16.445 16.445 16.445C57.623 63.096 65 55.72 65 46.651c0-3.447-1.067-6.65-2.888-9.296zm-2.141-4.782a.79.79 0 011.12 0l.993.993c.31.31.31.81 0 1.12l-1.15 1.15a16.611 16.611 0 00-2.164-2.063l1.2-1.2zm-15.135-7.22c0-.466.378-.845.844-.845h5.75c.465 0 .844.379.844.844v.945a.845.845 0 01-.844.845h-5.75a.845.845 0 01-.844-.845v-.945zm1.974 3.696h3.49v1.25a16.553 16.553 0 00-3.49 0v-1.25zm-14.818-5.507h6.017v6.017h-6.017v-6.017zm3.034 11.144a.79.79 0 010-1.12l.993-.993a.79.79 0 011.12 0l1.2 1.2a16.597 16.597 0 00-2.162 2.064l-1.15-1.15zM48.555 61.19c-8.016 0-14.538-6.522-14.538-14.538s6.522-14.538 14.538-14.538 14.538 6.522 14.538 14.538S56.57 61.19 48.555 61.19z" fill="#9898A7"/><path d="M48.555 34.216c-5.934 0-11.066 4.22-12.203 10.035a.953.953 0 101.871.366c.963-4.921 5.308-8.493 10.332-8.493 5.805 0 10.528 4.722 10.528 10.527 0 5.805-4.723 10.528-10.528 10.528-5.012 0-9.355-3.563-10.327-8.471a.954.954 0 00-1.871.37c1.148 5.8 6.278 10.008 12.198 10.008 6.857 0 12.435-5.578 12.435-12.435s-5.578-12.435-12.435-12.435z" fill="#9898A7"/></svg>