<svg width="65" height="65" fill="none" xmlns="http://www.w3.org/2000/svg"><g clip-path="url(#clip0)" fill="#9898A7"><path d="M60.867 48.942c-1.142-1.68-3.078-2.092-5.18-1.103l-14.65 6.45v-.044a.989.989 0 00-.004-.106 5.59 5.59 0 00-4.815-4.997l-9.74-1.121c-2.058-.294-3.07-.982-4.977-2.097a18.45 18.45 0 00-9.307-2.523h-.607v-.985a2.634 2.634 0 00-2.631-2.632H6.104a2.634 2.634 0 00-2.631 2.632v18.213c0 1.45 1.18 2.63 2.631 2.63h2.852a2.632 2.632 0 002.623-2.477l9.535 3.55A10.64 10.64 0 0024.83 65h13.138c2.014 0 3.978-.567 5.68-1.641l16.43-9.27c1.15-.649 2.158-3.136.79-5.147zm-1.822 3.544l-16.353 9.226a8.735 8.735 0 01-4.725 1.384H24.83a8.719 8.719 0 01-3.052-.55l-10.191-3.793v-6.908a.952.952 0 10-1.904 0v8.784c0 .4-.326.727-.727.727H6.104a.728.728 0 01-.727-.727V42.416c0-.401.326-.727.727-.727h2.852c.4 0 .727.326.727.727v4.976a.952.952 0 101.904 0v-2.086h.608c2.93 0 5.816.782 8.345 2.261 2.021 1.181 3.249 1.996 5.683 2.34a.513.513 0 00.024.004l9.74 1.121a3.69 3.69 0 013.146 3.245l-.006.528c-5.66-.066-7.812.188-11.433-.34l-1.686-.246a.953.953 0 00-.275 1.884l1.686.246c3.847.562 6.065.288 12.648.36.132 0 .27-.03.384-.08l16.016-7.052.023-.011c.862-.408 2.049-.661 2.803.447a1.94 1.94 0 01-.248 2.473z"/><path d="M15.265 22.03a2.248 2.248 0 01.689 2.572 4.16 4.16 0 003.24 5.613c.642.1 1.188.463 1.53.977l-4.459 8.645c-.267.52-.21 1.127.15 1.588.358.46.935.662 1.503.529l4.864-1.145 1.886 4.626a1.464 1.464 0 001.372.92c.556 0 1.054-.302 1.311-.8l4.173-8.092a4.18 4.18 0 001.958 0l4.173 8.091a1.463 1.463 0 001.38.8 1.464 1.464 0 001.303-.92l1.886-4.625 4.864 1.145a1.463 1.463 0 001.504-.53c.36-.46.416-1.068.149-1.587l-4.459-8.646a2.247 2.247 0 011.53-.976 4.16 4.16 0 003.24-5.613 2.248 2.248 0 01.69-2.572 4.16 4.16 0 000-6.481 2.248 2.248 0 01-.69-2.572 4.16 4.16 0 00-3.24-5.613 2.248 2.248 0 01-1.883-1.883 4.16 4.16 0 00-5.613-3.24 2.248 2.248 0 01-2.572-.69 4.16 4.16 0 00-6.482 0 2.248 2.248 0 01-2.571.69 4.16 4.16 0 00-5.613 3.24 2.248 2.248 0 01-1.883 1.883 4.16 4.16 0 00-3.24 5.613c.356.92.079 1.954-.69 2.572a4.16 4.16 0 000 6.481zm10.817 21.83l-1.675-4.108a1.471 1.471 0 00-1.708-.88l-4.318 1.016 3.241-6.283a4.162 4.162 0 005.068 1.734 2.247 2.247 0 012.572.689c.17.212.36.403.563.574l-3.743 7.258zm16.224-4.989a1.472 1.472 0 00-1.708.881l-1.675 4.108-3.743-7.258c.203-.171.393-.362.563-.574a2.249 2.249 0 012.572-.69 4.162 4.162 0 005.068-1.733l3.24 6.283-4.317-1.017zM16.459 17.032a4.146 4.146 0 001.27-4.742 2.256 2.256 0 011.758-3.044 4.146 4.146 0 003.472-3.472 2.256 2.256 0 013.044-1.758 4.145 4.145 0 004.742-1.27 2.256 2.256 0 013.515 0 4.146 4.146 0 004.743 1.27 2.256 2.256 0 013.044 1.758 4.146 4.146 0 003.472 3.472 2.256 2.256 0 011.757 3.044 4.146 4.146 0 001.27 4.742 2.256 2.256 0 010 3.515 4.145 4.145 0 00-1.27 4.743 2.256 2.256 0 01-1.757 3.044 4.146 4.146 0 00-3.472 3.472 2.256 2.256 0 01-3.044 1.757 4.147 4.147 0 00-4.743 1.27 2.256 2.256 0 01-3.515 0 4.146 4.146 0 00-4.742-1.27 2.256 2.256 0 01-3.044-1.757 4.146 4.146 0 00-3.472-3.473 2.256 2.256 0 01-1.757-3.043 4.146 4.146 0 00-1.271-4.743 2.256 2.256 0 010-3.515z"/><path d="M20.503 20.08a.952.952 0 00-.761 1.11c1.147 6.132 6.514 10.582 12.76 10.582 7.16 0 12.983-5.824 12.983-12.982 0-7.159-5.824-12.983-12.982-12.983-6.247 0-11.613 4.45-12.76 10.58a.952.952 0 101.871.35c.98-5.23 5.558-9.026 10.889-9.026 6.108 0 11.078 4.97 11.078 11.079 0 6.108-4.97 11.078-11.078 11.078-5.331 0-9.91-3.797-10.89-9.028a.953.953 0 00-1.11-.76z"/><path d="M39.514 15.25l-4.235-.187-1.487-3.97c-.446-1.19-2.132-1.19-2.578 0l-1.487 3.97-4.236.188c-1.268.056-1.792 1.659-.796 2.452l3.316 2.641-1.13 4.086c-.34 1.225 1.025 2.216 2.085 1.515l3.537-2.337 3.536 2.337c1.057.699 2.426-.286 2.086-1.515l-1.13-4.086 3.316-2.641c.994-.793.472-2.396-.797-2.452zm-3.979 3.822a1.374 1.374 0 00-.469 1.443l.848 3.064-2.652-1.753a1.375 1.375 0 00-1.518 0L29.09 23.58l.848-3.063a1.374 1.374 0 00-.47-1.444l-2.486-1.981 3.177-.14a1.374 1.374 0 001.227-.893l1.116-2.977 1.115 2.977c.194.518.676.868 1.228.892l3.176.141-2.487 1.98z"/></g><defs><clipPath id="clip0"><path fill="#fff" d="M0 0h65v65H0z"/></clipPath></defs></svg>