<svg width="58" height="43" fill="none" xmlns="http://www.w3.org/2000/svg"><mask id="mask0" maskUnits="userSpaceOnUse" x="0" y="0" width="58" height="43"><path d="M19.954 0h37.5L37.5 43H0L19.954 0z" fill="#2A58ED"/></mask><g mask="url(#mask0)" stroke="#fff" stroke-miterlimit="10"><path d="M20.085 31.088H2.306m-9.78 0h-3.077a1.714 1.714 0 01-1.712-1.709V8.71c0-.946.764-1.709 1.712-1.709h32.877c.459 0 .886.183 1.212.498l10.963 10.946c.326.326.499.753.499 1.21v9.726c0 .946-.764 1.709-1.712 1.709h-3.423"/><path d="M26.024 9.99H-8.055a.839.839 0 00-.835.835v5.686c0 .458.377.834.835.834H33.38M17.018 9.99v21.1m-19.602 4.881c2.7 0 4.89-2.186 4.89-4.883a4.887 4.887 0 00-4.89-4.882c-2.7 0-4.89 2.186-4.89 4.882a4.887 4.887 0 004.89 4.883zm27.559 0c2.7 0 4.89-2.186 4.89-4.883a4.887 4.887 0 00-4.89-4.882c-2.7 0-4.89 2.186-4.89 4.882a4.887 4.887 0 004.89 4.883zM35 21.404h-4.014a.978.978 0 00-.978.977v1.526c0 .539.438.976.978.976H35m-12.236-3.479h-3.26M35 28.108h-3.117m-5.981 2.98h-1.477"/></g></svg>