<svg width="34" height="29" fill="none" xmlns="http://www.w3.org/2000/svg"><path d="M31.373 8.707H9.513V7.574h.034a1.03 1.03 0 001.03-1.03V3.847h9.617c.862 0 1.563-.702 1.563-1.563 0-.862-.702-1.563-1.563-1.563H3.692A2.63 2.63 0 001.065 3.35v3.194c0 .569.462 1.03 1.03 1.03h.034v1.134h-.034A2.096 2.096 0 000 10.802v17.567c0 .275.223.498.498.498h9.582a.498.498 0 00.498-.498V16.657a2.699 2.699 0 012.696-2.695h13.342v1.099c0 .568.462 1.03 1.03 1.03h4.259c.568 0 1.03-.462 1.03-1.03v-1.1h.035c.568 0 1.03-.462 1.03-1.03v-1.597a2.63 2.63 0 00-2.627-2.627zM3.125 7.574h2.697a.498.498 0 000-.996H2.095a.034.034 0 01-.034-.035V3.35c0-.899.732-1.63 1.63-1.63h16.503a.567.567 0 010 1.132H10.08a.498.498 0 00-.498.498v3.194a.034.034 0 01-.034.035H7.95a.498.498 0 000 .996h.567v1.133H3.125V7.574zm29.879 5.357a.034.034 0 01-.034.035h-2.662a.498.498 0 000 .996h1.631v1.098a.034.034 0 01-.034.035h-4.259a.034.034 0 01-.034-.035v-1.098h.567a.498.498 0 100-.996H13.274a3.696 3.696 0 00-3.692 3.691V27.87H.996V10.802a1.1 1.1 0 011.099-1.099h29.278c.9 0 1.63.732 1.63 1.631v1.597z" fill="#fff"/><path d="M29.776 17.224a.498.498 0 00-.498.498v1.065a.498.498 0 00.996 0v-1.065a.498.498 0 00-.498-.498zm0 6.388a.498.498 0 00-.498.498v1.064a.498.498 0 00.996 0V24.11a.498.498 0 00-.498-.498zm0-3.194a.498.498 0 00-.498.498v1.065a.498.498 0 10.996 0v-1.065a.498.498 0 00-.498-.498zm0 6.388a.498.498 0 00-.498.498v1.064a.498.498 0 10.996 0v-1.064a.498.498 0 00-.498-.498zm2.28-7.528a.498.498 0 00.448-.544l-.103-1.06a.498.498 0 10-.992.096l.103 1.06a.498.498 0 00.544.448zm.617 6.358a.498.498 0 00.447-.544l-.102-1.06a.498.498 0 10-.992.096l.103 1.06a.498.498 0 00.544.448zm-.309-3.179a.498.498 0 00.448-.544l-.103-1.06a.498.498 0 10-.991.096l.102 1.06a.498.498 0 00.544.448zm.962 4.754a.498.498 0 00-.992.096l.103 1.06a.498.498 0 10.992-.096l-.103-1.06zm-5.631-9.984a.498.498 0 00-.544.447l-.103 1.06a.498.498 0 00.992.096l.102-1.06a.498.498 0 00-.447-.543zm-.617 6.357a.498.498 0 00-.544.448l-.103 1.06a.498.498 0 10.991.096l.103-1.06a.498.498 0 00-.447-.544zm.308-3.178a.498.498 0 00-.544.447l-.103 1.06a.498.498 0 00.992.096l.103-1.06a.498.498 0 00-.448-.543zm-.616 6.358a.498.498 0 00-.544.447l-.103 1.06a.498.498 0 00.991.096l.103-1.06a.498.498 0 00-.448-.543z" fill="#fff"/></svg>